<svg width="31" height="29" viewBox="0 0 31 29" fill="none" xmlns="http://www.w3.org/2000/svg">
<g id="google_ic">
<g id="Group 123">
<path id="Vector" d="M7.77429 16.6994L6.8024 20.0022L3.25017 20.0706C2.18858 18.2782 1.58643 16.2274 1.58643 14.0481C1.58643 11.9407 2.14942 9.95335 3.14738 8.20349H3.14814L6.31062 8.73129L7.69598 11.5929C7.40602 12.3624 7.24799 13.1885 7.24799 14.0481C7.2481 14.9809 7.43373 15.8748 7.77429 16.6994Z" fill="#FBBB00"/>
<path id="Vector_2" d="M29.2634 11.674C29.4237 12.4427 29.5073 13.2367 29.5073 14.0481C29.5073 14.9579 29.4022 15.8454 29.202 16.7015C28.5224 19.6147 26.7467 22.1585 24.2867 23.9587L24.286 23.958L20.3027 23.773L19.7389 20.5693C21.3712 19.6978 22.6468 18.3341 23.3188 16.7015H15.8538V11.674H23.4277H29.2634Z" fill="#518EF8"/>
<path id="Vector_3" d="M24.286 23.958L24.2868 23.9587C21.8944 25.7093 18.8552 26.7567 15.5469 26.7567C10.2305 26.7567 5.6082 24.0516 3.25024 20.0707L7.77436 16.6995C8.95331 19.5638 11.9886 21.6027 15.5469 21.6027C17.0764 21.6027 18.5093 21.2264 19.7389 20.5693L24.286 23.958Z" fill="#28B446"/>
<path id="Vector_4" d="M24.4579 4.26523L19.9353 7.63579C18.6628 6.9117 17.1585 6.49341 15.547 6.49341C11.908 6.49341 8.816 8.62592 7.69611 11.5929L3.14822 8.20351H3.14746C5.47089 4.12559 10.1515 1.33948 15.547 1.33948C18.9343 1.33948 22.0401 2.43788 24.4579 4.26523Z" fill="#F14336"/>
</g>
</g>
</svg>
